<?xml version="1.0" standalone="no"?>
<!DOCTYPE svg PUBLIC "-//W3C//DTD SVG 20010904//EN"
 "http://www.w3.org/TR/2001/REC-SVG-20010904/DTD/svg10.dtd">
<svg version="1.0" xmlns="http://www.w3.org/2000/svg"
 width="350.000000pt" height="350.000000pt" viewBox="0 0 350.000000 350.000000"
 preserveAspectRatio="xMidYMid meet">
<metadata>
Created by potrace 1.11, written by Peter Selinger 2001-2013
</metadata>
<g transform="translate(0.000000,350.000000) scale(0.100000,-0.100000)"
fill="#000000" stroke="none">
<path d="M0 1750 l0 -1750 1750 0 1750 0 0 1750 0 1750 -1750 0 -1750 0 0
-1750z m1764 1155 c58 -28 71 -63 74 -217 l4 -136 246 -4 c202 -4 256 -8 294
-22 70 -26 139 -93 174 -168 l29 -63 0 -585 c0 -470 -3 -593 -14 -624 -17 -49
-73 -111 -125 -139 -41 -22 -44 -22 -721 -25 -616 -2 -684 -1 -724 14 -58 22
-119 79 -145 134 -20 44 -21 62 -24 600 -2 388 0 573 8 615 15 75 47 132 105
183 78 69 107 75 387 80 l246 4 4 136 c4 155 15 188 70 215 41 21 71 21 112 2z
m-1054 -1236 l0 -382 -78 5 c-52 3 -89 11 -110 23 -59 35 -62 54 -62 353 0
149 4 282 9 295 23 59 76 85 179 86 l62 1 0 -381z m2188 356 c59 -35 62 -54
62 -355 0 -301 -3 -320 -62 -355 -21 -12 -58 -20 -110 -23 l-78 -5 0 383 0
383 78 -5 c52 -3 89 -11 110 -23z"/>
<path d="M1250 2048 c-49 -34 -72 -83 -67 -141 7 -82 71 -140 152 -140 151 0
210 195 85 281 -24 16 -47 22 -85 22 -38 0 -61 -6 -85 -22z"/>
<path d="M2000 2048 c-49 -34 -72 -83 -67 -141 7 -82 71 -140 152 -140 151 0
210 195 85 281 -24 16 -47 22 -85 22 -38 0 -61 -6 -85 -22z"/>
<path d="M1210 1360 l0 -60 125 0 125 0 0 60 0 60 -125 0 -125 0 0 -60z"/>
<path d="M1590 1360 l0 -60 120 0 120 0 0 60 0 60 -120 0 -120 0 0 -60z"/>
<path d="M1960 1360 l0 -60 125 0 125 0 0 60 0 60 -125 0 -125 0 0 -60z"/>
</g>
</svg>
